<mxfile host="app.diagrams.net" modified="2023-01-06T06:45:51.898Z" agent="5.0 (Windows NT 10.0; Win64; x64) AppleWebKit/537.36 (KHTML, like Gecko) Chrome/108.0.0.0 Safari/537.36" version="20.8.1" etag="b-vX_VOL0MBAcP5cVI_6" type="github">
  <diagram id="lrJm_30fVVY7XijvjC09" name="第 1 页">
    <mxGraphModel dx="1418" dy="779" grid="1" gridSize="10" guides="1" tooltips="1" connect="1" arrows="1" fold="1" page="1" pageScale="1" pageWidth="827" pageHeight="1169" math="0" shadow="0">
      <root>
        <mxCell id="0" />
        <mxCell id="1" parent="0" />
        <mxCell id="MHaPkQPc00xPS-urketU-1" value="" style="rounded=0;whiteSpace=wrap;html=1;" vertex="1" parent="1">
          <mxGeometry x="70" y="770" width="1160" height="40" as="geometry" />
        </mxCell>
        <mxCell id="MHaPkQPc00xPS-urketU-2" value="&lt;h1 style=&quot;font-size: 18px;&quot;&gt;出海改造&lt;/h1&gt;" style="text;html=1;strokeColor=none;fillColor=none;spacing=5;spacingTop=-20;whiteSpace=wrap;overflow=hidden;rounded=0;fontStyle=0;fontSize=18;" vertex="1" parent="1">
          <mxGeometry x="480" y="897" width="80" height="30" as="geometry" />
        </mxCell>
        <mxCell id="MHaPkQPc00xPS-urketU-3" value="&lt;h1 style=&quot;font-size: 18px;&quot;&gt;商业化中心业务&lt;/h1&gt;" style="text;html=1;strokeColor=none;fillColor=none;spacing=5;spacingTop=-20;whiteSpace=wrap;overflow=hidden;rounded=0;fontSize=18;" vertex="1" parent="1">
          <mxGeometry x="94" y="670" width="140" height="30" as="geometry" />
        </mxCell>
        <mxCell id="MHaPkQPc00xPS-urketU-4" value="&lt;h1 style=&quot;font-size: 18px;&quot;&gt;商业化运营系统&lt;/h1&gt;" style="text;html=1;strokeColor=none;fillColor=none;spacing=5;spacingTop=-20;whiteSpace=wrap;overflow=hidden;rounded=0;fontStyle=0;fontSize=18;" vertex="1" parent="1">
          <mxGeometry x="170" y="920" width="140" height="30" as="geometry" />
        </mxCell>
        <mxCell id="MHaPkQPc00xPS-urketU-5" value="&lt;h1 style=&quot;font-size: 18px;&quot;&gt;平台功能建设&lt;/h1&gt;" style="text;html=1;strokeColor=none;fillColor=none;spacing=5;spacingTop=-20;whiteSpace=wrap;overflow=hidden;rounded=0;fontStyle=0;fontSize=18;" vertex="1" parent="1">
          <mxGeometry x="333" y="840" width="120" height="20" as="geometry" />
        </mxCell>
        <mxCell id="MHaPkQPc00xPS-urketU-6" value="" style="shape=curlyBracket;whiteSpace=wrap;html=1;rounded=1;flipH=1;labelPosition=right;verticalLabelPosition=middle;align=left;verticalAlign=middle;rotation=90;" vertex="1" parent="1">
          <mxGeometry x="383" y="509" width="20" height="640" as="geometry" />
        </mxCell>
        <mxCell id="MHaPkQPc00xPS-urketU-7" value="&lt;h1 style=&quot;font-size: 18px;&quot;&gt;商业化中台接入&lt;/h1&gt;" style="text;html=1;strokeColor=none;fillColor=none;spacing=5;spacingTop=-20;whiteSpace=wrap;overflow=hidden;rounded=0;fontSize=18;" vertex="1" parent="1">
          <mxGeometry x="260" y="610" width="143" height="30" as="geometry" />
        </mxCell>
        <mxCell id="MHaPkQPc00xPS-urketU-9" value="" style="endArrow=none;html=1;rounded=0;entryX=0.5;entryY=1;entryDx=0;entryDy=0;" edge="1" parent="1" target="MHaPkQPc00xPS-urketU-3">
          <mxGeometry width="50" height="50" relative="1" as="geometry">
            <mxPoint x="165" y="770" as="sourcePoint" />
            <mxPoint x="190" y="710" as="targetPoint" />
          </mxGeometry>
        </mxCell>
        <mxCell id="MHaPkQPc00xPS-urketU-10" value="" style="endArrow=none;html=1;rounded=0;entryX=0.65;entryY=0.739;entryDx=0;entryDy=0;entryPerimeter=0;fontStyle=0;fontSize=18;" edge="1" parent="1" target="MHaPkQPc00xPS-urketU-6">
          <mxGeometry width="50" height="50" relative="1" as="geometry">
            <mxPoint x="240" y="910" as="sourcePoint" />
            <mxPoint x="240" y="830" as="targetPoint" />
          </mxGeometry>
        </mxCell>
        <mxCell id="MHaPkQPc00xPS-urketU-11" value="" style="endArrow=none;html=1;rounded=0;entryX=0.75;entryY=0.302;entryDx=0;entryDy=0;entryPerimeter=0;fontStyle=0;fontSize=18;" edge="1" parent="1" target="MHaPkQPc00xPS-urketU-6">
          <mxGeometry width="50" height="50" relative="1" as="geometry">
            <mxPoint x="520" y="890" as="sourcePoint" />
            <mxPoint x="520" y="830" as="targetPoint" />
          </mxGeometry>
        </mxCell>
        <mxCell id="MHaPkQPc00xPS-urketU-12" value="" style="endArrow=none;html=1;rounded=0;entryX=0.5;entryY=1;entryDx=0;entryDy=0;" edge="1" parent="1">
          <mxGeometry x="1" y="156" width="50" height="50" relative="1" as="geometry">
            <mxPoint x="327" y="770" as="sourcePoint" />
            <mxPoint x="327" y="640" as="targetPoint" />
            <mxPoint x="36" y="-100" as="offset" />
          </mxGeometry>
        </mxCell>
        <mxCell id="MHaPkQPc00xPS-urketU-13" value="&lt;h1 style=&quot;font-size: 18px;&quot;&gt;出海试点&lt;/h1&gt;" style="text;html=1;strokeColor=none;fillColor=none;spacing=5;spacingTop=-20;whiteSpace=wrap;overflow=hidden;rounded=0;fontSize=18;" vertex="1" parent="1">
          <mxGeometry x="565" y="680" width="90" height="30" as="geometry" />
        </mxCell>
        <mxCell id="MHaPkQPc00xPS-urketU-14" value="" style="endArrow=none;html=1;rounded=0;entryX=0.5;entryY=1;entryDx=0;entryDy=0;" edge="1" parent="1">
          <mxGeometry x="1" y="-435" width="50" height="50" relative="1" as="geometry">
            <mxPoint x="610" y="770" as="sourcePoint" />
            <mxPoint x="610" y="710" as="targetPoint" />
            <mxPoint as="offset" />
          </mxGeometry>
        </mxCell>
        <mxCell id="MHaPkQPc00xPS-urketU-15" value="2月初" style="text;html=1;strokeColor=none;fillColor=none;align=center;verticalAlign=middle;whiteSpace=wrap;rounded=0;" vertex="1" parent="1">
          <mxGeometry x="135" y="775" width="60" height="30" as="geometry" />
        </mxCell>
        <mxCell id="MHaPkQPc00xPS-urketU-16" value="3月初" style="text;html=1;strokeColor=none;fillColor=none;align=center;verticalAlign=middle;whiteSpace=wrap;rounded=0;" vertex="1" parent="1">
          <mxGeometry x="210" y="775" width="60" height="30" as="geometry" />
        </mxCell>
        <mxCell id="MHaPkQPc00xPS-urketU-17" value="4月初" style="text;html=1;strokeColor=none;fillColor=none;align=center;verticalAlign=middle;whiteSpace=wrap;rounded=0;" vertex="1" parent="1">
          <mxGeometry x="295" y="775" width="60" height="30" as="geometry" />
        </mxCell>
        <mxCell id="MHaPkQPc00xPS-urketU-18" value="4月中旬" style="text;html=1;strokeColor=none;fillColor=none;align=center;verticalAlign=middle;whiteSpace=wrap;rounded=0;" vertex="1" parent="1">
          <mxGeometry x="490" y="775" width="60" height="30" as="geometry" />
        </mxCell>
        <mxCell id="MHaPkQPc00xPS-urketU-19" value="6月初" style="text;html=1;strokeColor=none;fillColor=none;align=center;verticalAlign=middle;whiteSpace=wrap;rounded=0;" vertex="1" parent="1">
          <mxGeometry x="580" y="775" width="60" height="30" as="geometry" />
        </mxCell>
      </root>
    </mxGraphModel>
  </diagram>
</mxfile>
